<?xml version="1.0" encoding="UTF-8"?>
<svg xmlns="http://www.w3.org/2000/svg" xmlns:xlink="http://www.w3.org/1999/xlink" width="32px" height="40px" viewBox="0 0 32 40" version="1.1">
<g id="surface1">
<path style=" stroke:none;fill-rule:nonzero;fill:rgb(97.647059%,97.647059%,97.647059%);fill-opacity:1;" d="M 2.410156 32.511719 C 1.207031 32.101562 0.304688 31.171875 0.0703125 30.054688 C 0.03125 29.847656 0 28.863281 0 27.96875 L 0.00390625 26.257812 L 0.140625 26.652344 C 0.449219 27.546875 1.265625 28.363281 2.171875 28.664062 C 2.703125 28.863281 3.605469 28.929688 4.050781 28.8125 C 4.359375 28.738281 28.175781 17.566406 29.96875 16.597656 C 30.945312 16.113281 31.414062 15.472656 31.714844 14.730469 C 31.828125 14.417969 31.894531 14.496094 31.871094 16.375 C 31.855469 18.238281 31.84375 18.386719 31.683594 18.683594 C 31.417969 19.25 31.027344 19.726562 30.554688 20.023438 C 30.132812 20.3125 5.015625 32.238281 4.269531 32.460938 C 3.769531 32.640625 2.832031 32.640625 2.3125 32.464844 Z M 2.410156 32.511719 "/>
<path style=" stroke:none;fill-rule:nonzero;fill:rgb(45.882353%,89.803922%,93.333333%);fill-opacity:1;" d="M 2.335938 29.085938 C 1.277344 28.734375 0.453125 27.984375 0.15625 27.03125 C 0.00390625 26.558594 0.00390625 26.359375 0.00390625 14.742188 C 0.00390625 7.074219 0.03125 2.828125 0.078125 2.53125 C 0.261719 1.570312 0.910156 0.757812 1.8125 0.394531 C 2.226562 0.199219 2.4375 0.15625 2.941406 0.125 C 3.304688 0.109375 3.691406 0.136719 3.847656 0.1875 C 4.128906 0.265625 29.480469 11.578125 30.382812 11.953125 C 31.515625 12.523438 32.1875 13.867188 31.816406 15.042969 C 31.476562 16.21875 30.984375 16.589844 28.953125 17.625 C 22.328125 20.730469 4.296875 29.171875 4.066406 29.246094 C 3.445312 29.414062 2.574219 29.210938 2.335938 29.082031 Z M 2.335938 29.085938 "/>
<path style=" stroke:none;fill-rule:nonzero;fill:rgb(36.862745%,86.27451%,93.333333%);fill-opacity:1;" d="M 0.0234375 26.585938 L 0.00390625 16.085938 C -0.0117188 9.234375 0.0078125 5.433594 0.0585938 5.136719 C 0.296875 3.871094 1.332031 2.902344 2.601562 2.679688 C 2.949219 2.625 3.222656 2.625 3.5 2.683594 C 3.816406 2.738281 7.546875 4.394531 16.671875 8.566406 C 23.710938 11.769531 29.839844 14.21875 30.136719 14.367188 C 30.648438 14.605469 31.636719 15.410156 31.636719 15.632812 C 31.636719 15.699219 31.535156 16.195312 31.292969 16.421875 C 30.777344 16.921875 31.777344 16.410156 16.402344 23.714844 C 9.808594 26.839844 4.285156 29.222656 4.050781 29.296875 C 3.640625 29.410156 2.773438 29.257812 2.351562 29.089844 C 1.863281 28.929688 1.609375 28.796875 1.222656 28.507812 C 0.710938 28.167969 0.363281 27.582031 0.191406 27.160156 C 0.117188 26.96875 0.0976562 26.773438 0.015625 26.585938 Z M 0.0234375 26.585938 "/>
<path style=" stroke:none;fill-rule:nonzero;fill:rgb(14.901961%,77.254902%,99.215686%);fill-opacity:1;" d="M 2.410156 39.585938 C 1.203125 39.183594 0.300781 38.269531 0.0742188 37.175781 C 0.0351562 36.957031 0.0664062 35.320312 0.0664062 33.199219 C 0.0273438 30.121094 0.0546875 29.757812 0.132812 29.925781 C 0.484375 31.019531 1.617188 31.910156 2.894531 32.050781 C 3.945312 32.207031 3.226562 32.496094 16.839844 26.207031 C 23.691406 23.0625 29.667969 20.285156 29.964844 20.070312 C 30.792969 19.652344 30.992188 19.125 31.597656 18.410156 L 31.867188 17.949219 L 31.9375 21.746094 C 32.011719 25.542969 31.914062 25.617188 31.75 25.910156 C 31.488281 26.464844 31.09375 26.929688 30.625 27.226562 C 30.203125 27.511719 5.121094 39.214844 4.375 39.441406 C 3.878906 39.617188 2.941406 39.617188 2.421875 39.445312 Z M 2.410156 39.585938 "/>
<path style=" stroke:none;fill-rule:nonzero;fill:rgb(30.588235%,61.960784%,92.941176%);fill-opacity:1;" d="M 0.0976562 35.214844 C 0.101562 33.726562 0.0585938 33.480469 0.148438 33.777344 C 0.453125 34.746094 1.230469 35.707031 2.214844 36.003906 C 2.691406 36.140625 3.578125 36.160156 4.035156 36.042969 C 4.414062 35.9375 30.058594 23.902344 30.582031 23.605469 C 31.195312 23.222656 31.722656 22.5625 31.945312 21.890625 C 31.980469 21.789062 32 22.5625 31.992188 23.605469 C 31.976562 25.390625 31.964844 25.539062 31.800781 25.914062 C 31.511719 26.621094 30.890625 27.179688 29.90625 27.699219 C 29.460938 27.921875 23.457031 30.753906 16.558594 33.957031 L 4.03125 39.839844 L 3.308594 39.863281 C 2.761719 39.878906 2.472656 39.851562 2.167969 39.75 C 1.148438 39.175781 0.320312 38.351562 0.109375 37.425781 C 0.0859375 36.667969 0.0976562 35.878906 0.0976562 35.214844 Z M 0.0976562 35.214844 "/>
</g>
</svg>
